<svg width="20" height="17" viewBox="0 0 20 17" fill="none" xmlns="http://www.w3.org/2000/svg">
<path d="M9.74888 0.27417C5.20945 0.27417 1.52307 3.96055 1.52307 8.49998C1.52307 13.0394 5.20945 16.7258 9.74888 16.7258C14.2883 16.7258 17.9747 13.0394 17.9747 8.49998C17.9747 3.96055 14.2883 0.27417 9.74888 0.27417Z" fill="#B1B1B1"/>
<path d="M18.6145 11.0896H0.883306C0.54818 11.0896 0.273987 10.8154 0.273987 10.4803V6.51972C0.273987 6.18459 0.54818 5.9104 0.883306 5.9104H18.6145C18.9496 5.9104 19.2238 6.18459 19.2238 6.51972V10.5108C19.2238 10.8154 18.9496 11.0896 18.6145 11.0896Z" fill="#B1B1B1"/>
<path d="M4.75267 12.3387H4.20428V12.8871H4.75267V12.3387Z" fill="white"/>
<path d="M15.2939 12.3387H14.7455V12.8871H15.2939V12.3387Z" fill="white"/>
<path d="M4.75267 4.11292H4.20428V4.6613H4.75267V4.11292Z" fill="white"/>
<path d="M15.2939 4.11292H14.7455V4.6613H15.2939V4.11292Z" fill="white"/>
<path d="M18.6756 5.6362H17.7616C16.5735 2.34588 13.4355 0 9.7491 0C6.06272 0 2.92473 2.34588 1.73656 5.6362H0.822581C0.365591 5.6362 0 6.00179 0 6.45878V10.5412C0 10.9982 0.365591 11.3638 0.822581 11.3638H1.73656C2.92473 14.6541 6.06272 17 9.7491 17C13.4355 17 16.5735 14.6541 17.7616 11.3638H18.6756C19.1326 11.3638 19.4982 10.9982 19.4982 10.5412V6.45878C19.4982 6.00179 19.1326 5.6362 18.6756 5.6362ZM9.7491 0.548387C13.1308 0.548387 15.9946 2.65054 17.1523 5.6362H2.34588C3.50358 2.65054 6.36738 0.548387 9.7491 0.548387ZM9.7491 16.4516C6.36738 16.4516 3.50358 14.3495 2.34588 11.3638H17.1523C15.9946 14.3495 13.1308 16.4516 9.7491 16.4516ZM18.9498 10.5412C18.9498 10.6935 18.828 10.8154 18.6756 10.8154H0.822581C0.670251 10.8154 0.548387 10.6935 0.548387 10.5412V6.45878C0.548387 6.30645 0.670251 6.18459 0.822581 6.18459H18.6756C18.828 6.18459 18.9498 6.30645 18.9498 6.45878V10.5412Z" fill="white"/>
<path d="M9.74898 1.40149L10.1146 2.13267L10.9067 2.22407L10.3278 2.80292L10.4497 3.59504L9.74898 3.22945L9.04827 3.59504L9.17013 2.80292L8.59128 2.22407L9.38339 2.13267L9.74898 1.40149Z" fill="white"/>
<path d="M12.9479 3.10754L13.2221 3.65593L13.8009 3.74733L13.3744 4.14339L13.4963 4.75271L12.9479 4.47851L12.43 4.75271L12.5214 4.14339L12.0948 3.74733L12.7042 3.65593L12.9479 3.10754Z" fill="white"/>
<path d="M6.55007 3.10754L6.7938 3.65593L7.40311 3.74733L6.97659 4.14339L7.06799 4.75271L6.55007 4.47851L6.00168 4.75271L6.12354 4.14339L5.69702 3.74733L6.27587 3.65593L6.55007 3.10754Z" fill="white"/>
<path d="M9.74898 15.5986L9.38339 14.8674L8.59128 14.776L9.17013 14.1971L9.04827 13.405L9.74898 13.7706L10.4497 13.405L10.3278 14.1971L10.9067 14.776L10.1146 14.8674L9.74898 15.5986Z" fill="white"/>
<path d="M6.55007 13.8925L6.27587 13.3441L5.69702 13.2527L6.12354 12.8566L6.00168 12.2473L6.55007 12.5215L7.06799 12.2473L6.97659 12.8566L7.40311 13.2527L6.7938 13.3441L6.55007 13.8925Z" fill="white"/>
<path d="M12.9479 13.8925L12.7042 13.3441L12.0948 13.2527L12.5214 12.8566L12.43 12.2473L12.9479 12.5215L13.4963 12.2473L13.3744 12.8566L13.8009 13.2527L13.2221 13.3441L12.9479 13.8925Z" fill="white"/>
<path d="M3.25962 7.43359H2.55891C2.52844 7.43359 2.49797 7.43359 2.46751 7.46406C2.43704 7.49453 2.43704 7.52499 2.43704 7.55546V9.41388C2.43704 9.44435 2.43704 9.47481 2.46751 9.50528C2.52844 9.56621 2.61984 9.56621 2.6503 9.50528C2.68077 9.47481 2.68077 9.44435 2.68077 9.41388V8.7741H3.22916C3.53382 8.7741 3.83848 8.6827 3.96034 8.43897C4.05174 8.22571 4.0822 7.98198 3.96034 7.76872C3.83848 7.52499 3.53382 7.43359 3.25962 7.43359ZM3.22916 8.53037H2.68077V7.70779C3.07683 7.70779 3.47288 7.64686 3.65568 7.82965C3.74708 7.92105 3.77754 8.01245 3.77754 8.13431C3.77754 8.4085 3.53382 8.53037 3.22916 8.53037Z" fill="white"/>
<path d="M5.30085 7.43359H4.60014C4.56967 7.43359 4.5392 7.43359 4.50874 7.46406C4.47827 7.49453 4.47827 7.52499 4.47827 7.55546V9.41388C4.47827 9.59668 4.75247 9.59668 4.75247 9.41388V8.71316C5.45318 8.71316 5.84924 8.5913 5.84924 9.32248C5.84924 9.38341 5.84924 9.47481 5.8797 9.50528C5.94064 9.56621 6.03203 9.56621 6.09297 9.50528C6.18436 9.41388 6.09297 8.98736 6.0625 8.83503C6.00157 8.6827 5.91017 8.5913 5.75784 8.56083C6.30623 8.4085 6.36716 7.43359 5.30085 7.43359ZM4.722 8.46944V7.70779C5.11806 7.70779 5.51411 7.67732 5.72738 7.79919C5.81877 7.86012 5.84924 7.95152 5.84924 8.07338C5.84924 8.53037 5.20945 8.46944 4.722 8.46944Z" fill="white"/>
<path d="M8.0123 7.67732C8.04276 7.67732 8.07323 7.67732 8.1037 7.64686C8.16463 7.58592 8.16463 7.52499 8.1037 7.46406C8.07323 7.43359 8.04276 7.43359 8.0123 7.43359H6.79366C6.70226 7.43359 6.64133 7.49453 6.64133 7.58592C6.64133 9.32248 6.54993 9.56621 6.79366 9.56621H8.0123C8.04276 9.56621 8.07323 9.56621 8.1037 9.53574C8.19509 9.44435 8.13416 9.32248 8.0123 9.32248H6.91552V8.65223C7.76857 8.65223 8.0123 8.71316 8.0123 8.53037C8.0123 8.43897 7.95137 8.4085 7.89043 8.4085H6.91552V7.73825H8.0123V7.67732Z" fill="white"/>
<path d="M10.6324 7.4032C10.4191 7.4032 10.3887 7.64693 9.74887 9.26162L9.04815 7.52506C9.01769 7.46413 8.95676 7.4032 8.86536 7.4032C8.77396 7.4032 8.68256 7.4032 8.62163 7.46413C8.59117 7.4946 8.5607 7.55553 8.5607 7.61646V9.44442C8.5607 9.53581 8.62163 9.59675 8.71303 9.59675C8.80443 9.59675 8.86536 9.53581 8.86536 9.44442V7.70786C8.89582 7.79926 9.56608 9.47488 9.65747 9.53582C9.71841 9.59675 9.8098 9.59675 9.9012 9.53582C9.9926 9.47488 10.6324 7.79926 10.6933 7.70786V9.44442C10.6933 9.53581 10.7542 9.59675 10.8456 9.59675C10.937 9.59675 10.998 9.53581 10.998 9.44442V7.61646C10.998 7.55553 10.9675 7.52506 10.937 7.46413C10.8152 7.4032 10.7542 7.4032 10.6324 7.4032Z" fill="white"/>
<path d="M11.5769 7.4641C11.5464 7.49456 11.5464 7.52503 11.5464 7.55549V9.44438C11.5464 9.53578 11.6073 9.59671 11.6987 9.59671C11.9424 9.59671 11.851 9.35299 11.851 7.58596C11.851 7.55549 11.851 7.52503 11.8206 7.49456C11.7292 7.40316 11.6378 7.40316 11.5769 7.4641Z" fill="white"/>
<path d="M13.8618 7.55552C13.8618 8.80462 13.9532 9.10928 13.5571 9.26161C13.1915 9.41394 12.6736 9.26161 12.6736 8.74369V7.52505C12.6736 7.49459 12.6736 7.46412 12.6431 7.43365C12.5517 7.34226 12.3994 7.40319 12.3994 7.52505C12.3994 8.77416 12.308 9.20068 12.8564 9.47487C13.4048 9.7186 14.1664 9.44441 14.1664 8.74369V7.52505C14.1664 7.49459 14.1664 7.46412 14.136 7.43365C14.0141 7.37272 13.8618 7.43365 13.8618 7.55552Z" fill="white"/>
<path d="M16.8779 7.4032C16.7865 7.4032 16.7256 7.4032 16.6646 7.43366C16.5732 7.4946 15.9335 9.13976 15.903 9.26162L15.2023 7.52506C15.1718 7.46413 15.1109 7.4032 15.0195 7.4032C14.8671 7.4032 14.7148 7.43366 14.7148 7.61646V9.44442C14.7148 9.47488 14.7148 9.50535 14.7453 9.53582C14.8062 9.59675 14.8976 9.59675 14.9281 9.53582C14.9585 9.50535 14.9585 9.47488 14.9585 9.44442V7.70786L15.6593 9.44442C15.6897 9.53581 15.7811 9.56628 15.8421 9.56628C15.9335 9.56628 15.9944 9.50535 16.0248 9.44442L16.7256 7.70786V9.44442C16.7256 9.47488 16.7256 9.50535 16.756 9.53582C16.817 9.59675 16.9084 9.59675 16.9388 9.53582C16.9693 9.50535 16.9693 9.47488 16.9693 9.44442V7.61646C17.0912 7.4946 16.9998 7.4032 16.8779 7.4032Z" fill="white"/>
</svg>
