<svg width="17" height="17" viewBox="0 0 17 17" fill="none" xmlns="http://www.w3.org/2000/svg">
<path d="M16.3344 10.1362L14.9413 7.35056C14.8691 2.76196 10.6854 -0.76836 5.97753 0.144591C3.02899 0.717079 0.680173 3.08874 0.132489 6.04508C-0.253232 8.12734 0.209819 10.1975 1.43604 11.8746C2.45162 13.2647 2.98862 14.908 2.98862 16.5019C2.98862 16.7772 3.21138 17 3.4867 17H10.4597C10.735 17 10.9578 16.7772 10.9578 16.5019V15.2C10.9578 15.0575 11.074 14.9413 11.2165 14.9413H13.4481C14.272 14.9413 14.9423 14.271 14.9423 13.4471V11.9529H15.2117C15.6495 11.9529 16.0488 11.7306 16.2789 11.358C16.5095 10.9849 16.5304 10.5287 16.3344 10.1362ZM7.47127 11.9528C4.9994 11.9528 2.98862 9.94206 2.98862 7.47019C2.98862 4.99832 4.9994 2.98754 7.47127 2.98754C9.94313 2.98754 11.9539 4.99832 11.9539 7.47019C11.9539 9.94206 9.94313 11.9528 7.47127 11.9528Z" fill="white"/>
<path d="M7.47126 3.9837C5.549 3.9837 3.98477 5.54793 3.98477 7.47019C3.98477 9.39245 5.549 10.9567 7.47126 10.9567C9.39352 10.9567 10.9577 9.39245 10.9577 7.47019C10.9577 5.54797 9.39349 3.9837 7.47126 3.9837ZM9.46355 7.96827H7.96934V9.46248C7.96934 9.73776 7.74658 9.96056 7.47126 9.96056C7.19597 9.96056 6.97318 9.7378 6.97318 9.46248V7.96827H5.47898C5.20369 7.96827 4.9809 7.74551 4.9809 7.47019C4.9809 7.19491 5.20366 6.97211 5.47898 6.97211H6.97318V5.47791C6.97318 5.20262 7.19594 4.97983 7.47126 4.97983C7.74655 4.97983 7.96934 5.20259 7.96934 5.47791V6.97211H9.46355C9.73883 6.97211 9.96162 7.19487 9.96162 7.47019C9.96162 7.74551 9.73887 7.96827 9.46355 7.96827Z" fill="white"/>
</svg>
