<svg width="17" height="17" viewBox="0 0 17 17" fill="none" xmlns="http://www.w3.org/2000/svg">
<path d="M4.32431 4.59086L2.8515 4.70465C2.44168 4.73633 2.07668 4.95112 1.85004 5.29393L0.15148 7.8629C-0.0204114 8.12288 -0.0477374 8.44824 0.0783337 8.73325C0.204438 9.01826 0.463586 9.21688 0.771542 9.26459L2.12007 9.47344C2.43553 7.79935 3.1907 6.12938 4.32431 4.59086Z" fill="white"/>
<path d="M7.52649 14.8798L7.73537 16.2284C7.78308 16.5363 7.9817 16.7955 8.26668 16.9216C8.38525 16.974 8.51076 16.9999 8.63563 16.9999C8.81104 16.9999 8.98522 16.9488 9.13706 16.8484L11.7061 15.1499C12.0489 14.9232 12.2637 14.5582 12.2953 14.1484L12.4091 12.6756C10.8705 13.8093 9.20061 14.5644 7.52649 14.8798Z" fill="white"/>
<path d="M7.01933 13.9452C7.06615 13.9452 7.11323 13.9413 7.16021 13.9335C7.86159 13.8162 8.5376 13.6187 9.18246 13.3601L3.63992 7.81754C3.38133 8.46237 3.18377 9.13838 3.0665 9.83979C3.02028 10.1163 3.11302 10.3979 3.31121 10.5961L6.40385 13.6888C6.5684 13.8533 6.7905 13.9452 7.01933 13.9452Z" fill="white"/>
<path d="M15.6445 7.53714C17.0008 4.91498 17.051 2.14401 16.9801 0.844447C16.9559 0.399164 16.6009 0.0441597 16.1555 0.0198885C15.9439 0.00833391 15.6932 0 15.4105 0C13.9573 0 11.658 0.220101 9.46285 1.35554C7.7183 2.25789 5.43073 4.24478 4.0811 6.85592C4.09704 6.86837 4.11261 6.88158 4.12729 6.89626L10.1038 12.8728C10.1185 12.8874 10.1316 12.903 10.1441 12.9189C12.7552 11.5693 14.7421 9.28168 15.6445 7.53714ZM9.88445 3.59387C10.8553 2.62299 12.4352 2.62289 13.4061 3.59387C13.8765 4.06419 14.1355 4.68957 14.1355 5.35472C14.1355 6.01987 13.8765 6.64524 13.4061 7.11556C12.9207 7.60095 12.2829 7.8437 11.6453 7.84377C11.0075 7.8438 10.37 7.60109 9.88445 7.11556C9.4141 6.64524 9.15506 6.01987 9.15506 5.35472C9.15506 4.68957 9.4141 4.06419 9.88445 3.59387Z" fill="white"/>
<path d="M10.5888 6.41124C11.1713 6.99379 12.1193 6.99382 12.7018 6.41124C12.984 6.12902 13.1394 5.75382 13.1394 5.35472C13.1394 4.95562 12.984 4.58043 12.7018 4.29823C12.4106 4.00694 12.0279 3.86131 11.6453 3.86131C11.2627 3.86131 10.8801 4.00694 10.5888 4.29823C10.3066 4.58043 10.1511 4.95562 10.1511 5.35472C10.1511 5.75382 10.3066 6.12905 10.5888 6.41124Z" fill="white"/>
<path d="M0.508194 14.0096C0.635661 14.0096 0.763128 13.961 0.860346 13.8637L2.4864 12.2376C2.6809 12.0431 2.6809 11.7278 2.4864 11.5333C2.29193 11.3388 1.97657 11.3388 1.78206 11.5333L0.15601 13.1593C-0.0384941 13.3538 -0.0384941 13.6692 0.15601 13.8637C0.253261 13.9609 0.380728 14.0096 0.508194 14.0096Z" fill="white"/>
<path d="M3.97659 13.0235C3.78212 12.829 3.46675 12.829 3.27225 13.0235L0.146015 16.1497C-0.0484886 16.3442 -0.0484886 16.6595 0.146015 16.854C0.243267 16.9513 0.370733 16.9999 0.4982 16.9999C0.625667 16.9999 0.753133 16.9513 0.850352 16.854L3.97655 13.7278C4.17109 13.5333 4.17109 13.218 3.97659 13.0235Z" fill="white"/>
<path d="M4.76238 14.5136L3.13636 16.1397C2.94186 16.3342 2.94186 16.6495 3.13636 16.844C3.23361 16.9413 3.36108 16.9899 3.48851 16.9899C3.61595 16.9899 3.74345 16.9413 3.84066 16.844L5.46672 15.218C5.66122 15.0235 5.66122 14.7081 5.46672 14.5136C5.27225 14.3191 4.95689 14.3191 4.76238 14.5136Z" fill="white"/>
</svg>
